<?xml version="1.0" encoding="UTF-8" standalone="no"?>
<!-- Created with Inkscape (http://www.inkscape.org/) -->

<svg
   width="600"
   height="200"
   viewBox="0 0 158.75 52.916666"
   version="1.1"
   id="svg1"
   inkscape:export-filename="bitmap.svg"
   inkscape:export-xdpi="96"
   inkscape:export-ydpi="96"
   inkscape:version="1.3 (0e150ed6c4, 2023-07-21)"
   sodipodi:docname="logo_Color_White.svg"
   xmlns:inkscape="http://www.inkscape.org/namespaces/inkscape"
   xmlns:sodipodi="http://sodipodi.sourceforge.net/DTD/sodipodi-0.dtd"
   xmlns:xlink="http://www.w3.org/1999/xlink"
   xmlns="http://www.w3.org/2000/svg"
   xmlns:svg="http://www.w3.org/2000/svg">
  <sodipodi:namedview
     id="namedview1"
     pagecolor="#000000"
     bordercolor="#000000"
     borderopacity="0.25"
     inkscape:showpageshadow="2"
     inkscape:pageopacity="0.0"
     inkscape:pagecheckerboard="true"
     inkscape:deskcolor="#d1d1d1"
     inkscape:document-units="mm"
     inkscape:zoom="1.0449706"
     inkscape:cx="145.45864"
     inkscape:cy="126.79783"
     inkscape:window-width="2048"
     inkscape:window-height="1209"
     inkscape:window-x="-8"
     inkscape:window-y="246"
     inkscape:window-maximized="1"
     inkscape:current-layer="layer1"
     inkscape:export-bgcolor="#00000000"
     showgrid="false" />
  <defs
     id="defs1">
    <inkscape:path-effect
       effect="fillet_chamfer"
       id="path-effect19"
       is_visible="true"
       lpeversion="1"
       nodesatellites_param="F,0,0,1,0,0,0,1 @ F,0,0,1,0,0,0,1 @ F,0,0,1,0,0,0,1 @ F,0,0,1,0,0,0,1"
       radius="0"
       unit="px"
       method="auto"
       mode="F"
       chamfer_steps="1"
       flexible="false"
       use_knot_distance="true"
       apply_no_radius="true"
       apply_with_radius="true"
       only_selected="false"
       hide_knots="false" />
    <inkscape:path-effect
       effect="fillet_chamfer"
       id="path-effect18"
       is_visible="true"
       lpeversion="1"
       nodesatellites_param="F,0,0,1,0,5.3171356,0,1 @ F,0,0,1,0,5.2538363,0,1 @ F,0,0,1,0,5.7291925,0,1 @ F,0,0,1,0,5.1650683,0,1"
       radius="0"
       unit="px"
       method="auto"
       mode="F"
       chamfer_steps="1"
       flexible="false"
       use_knot_distance="true"
       apply_no_radius="true"
       apply_with_radius="true"
       only_selected="false"
       hide_knots="false" />
    <filter
       style="color-interpolation-filters:sRGB"
       inkscape:label="Invert"
       id="filter58"
       x="0"
       y="0"
       width="1"
       height="1">
      <feColorMatrix
         values="1 0 0 0 0 0 1 0 0 0 0 0 1 0 0 -0.21 -0.72 -0.07 2 0 "
         result="color2"
         id="feColorMatrix58" />
    </filter>
    <linearGradient
       inkscape:collect="always"
       xlink:href="#linearGradient1-8"
       id="linearGradient2-3"
       x1="5.6686105e-09"
       y1="-0.00074532873"
       x2="52.916668"
       y2="52.790813"
       gradientUnits="userSpaceOnUse"
       gradientTransform="translate(-52.916668,-52.916663)" />
    <linearGradient
       id="linearGradient1-8"
       inkscape:collect="always">
      <stop
         style="stop-color:#b293ff;stop-opacity:1;"
         offset="0"
         id="stop1-1" />
      <stop
         style="stop-color:#9100ff;stop-opacity:1;"
         offset="1"
         id="stop2-8" />
    </linearGradient>
    <filter
       style="color-interpolation-filters:sRGB"
       inkscape:label="Invert"
       id="filter58-3"
       x="0"
       y="0"
       width="1"
       height="1">
      <feColorMatrix
         values="1 0 0 0 0 0 1 0 0 0 0 0 1 0 0 -0.21 -0.72 -0.07 2 0 "
         result="color2"
         id="feColorMatrix58-6" />
    </filter>
    <inkscape:path-effect
       effect="fillet_chamfer"
       id="path-effect18-0"
       is_visible="true"
       lpeversion="1"
       nodesatellites_param="F,0,0,1,0,0,0,1 @ F,0,0,1,0,0,0,1 @ F,0,0,1,0,0,0,1 @ F,0,0,1,0,0,0,1 @ F,0,0,1,0,0,0,1 @ F,0,0,1,0,0,0,1 @ F,0,0,1,0,0,0,1 @ F,0,0,1,0,0,0,1"
       radius="0"
       unit="px"
       method="auto"
       mode="F"
       chamfer_steps="1"
       flexible="false"
       use_knot_distance="true"
       apply_no_radius="true"
       apply_with_radius="true"
       only_selected="false"
       hide_knots="false" />
  </defs>
  <g
     inkscape:label="Layer 1"
     inkscape:groupmode="layer"
     id="layer1">
    <path
       id="text116"
       style="font-style:normal;font-variant:normal;font-weight:normal;font-stretch:normal;font-size:22.8885px;font-family:'Segoe Print';-inkscape-font-specification:'Segoe Print, Normal';font-variant-ligatures:normal;font-variant-caps:normal;font-variant-numeric:normal;font-variant-east-asian:normal;opacity:1;fill:#fffffe;fill-opacity:1;stroke:none;stroke-width:0.156471;stroke-dasharray:none;stroke-opacity:1"
       d="m 84.043441,5.5373563 c -1.251713,0 -2.283239,0.5101417 -3.095362,1.5308843 -0.804673,1.0207427 -1.397331,2.6863485 -1.777315,4.9960584 -0.11176,0.633307 -0.212326,1.128909 -0.301734,1.486542 -0.08196,0.357632 -0.308959,0.681705 -0.681493,0.972282 -0.484294,0.372534 -0.726433,0.718957 -0.726433,1.039336 0,0.201168 0.160123,0.405681 0.480503,0.6143 0.312928,0.21607 0.469143,0.391504 0.469143,0.525616 0,0.782321 -0.107886,1.929434 -0.323956,3.441922 -0.350182,2.466173 -0.525441,3.964155 -0.525441,4.493153 0,1.110151 0.380298,1.664992 1.140267,1.664992 0.230971,0 0.46188,-0.06314 0.692851,-0.189806 0.230971,-0.126661 0.372544,-0.28311 0.424699,-0.469377 0,-0.07451 -0.02636,-0.257211 -0.07852,-0.547787 -0.05961,-0.312929 -0.08938,-0.793451 -0.08938,-1.44166 0,-2.168146 0.249954,-4.638347 0.749149,-7.409999 0.141563,-0.07451 0.752276,-0.167271 1.832624,-0.279031 1.266615,-0.126661 2.086275,-0.268571 2.458809,-0.425035 0.379984,-0.163915 0.569886,-0.398589 0.569886,-0.704066 0,-0.305478 -0.174765,-0.450752 -0.524947,-0.435851 -0.342731,0.0149 -1.486545,0.02271 -3.431171,0.02271 -0.447041,0 -0.670629,-0.171529 -0.670629,-0.51426 0,-1.072898 0.287054,-2.462495 0.860756,-4.1686996 0.573702,-1.7136555 1.29621,-2.5707609 2.167939,-2.5707609 0.804673,0 1.206934,0.719101 1.206934,2.1570815 l -0.07803,1.084219 c 0,0.245872 0.122529,0.368796 0.368402,0.368796 0.327829,0 0.618791,-0.342517 0.872114,-1.0279797 0.260773,-0.6929129 0.391118,-1.3114394 0.391118,-1.8553388 0,-0.6705608 -0.23091,-1.2293075 -0.692852,-1.6763481 C 85.26943,5.7647602 84.706552,5.5373563 84.043441,5.5373563 Z m 8.527556,0 c -1.251713,0 -2.283732,0.5101417 -3.095856,1.5308843 -0.804673,1.0207427 -1.396837,2.6863485 -1.776821,4.9960584 -0.11176,0.633307 -0.212326,1.128909 -0.301734,1.486542 -0.08196,0.357632 -0.309453,0.681705 -0.681987,0.972282 -0.484294,0.372534 -0.726432,0.718957 -0.726432,1.039336 0,0.201168 0.160123,0.405681 0.480502,0.6143 0.312928,0.21607 0.469638,0.391504 0.469638,0.525616 0,0.782321 -0.107887,1.929434 -0.323957,3.441922 -0.350181,2.466173 -0.525441,3.964155 -0.525441,4.493153 0,1.110151 0.379804,1.664992 1.139773,1.664992 0.230971,0 0.461881,-0.06314 0.692852,-0.189806 0.230971,-0.126661 0.372544,-0.28311 0.424698,-0.469377 0,-0.07451 -0.02587,-0.257211 -0.07803,-0.547787 -0.05961,-0.312929 -0.08938,-0.793451 -0.08938,-1.44166 0,-2.168146 0.24946,-4.638347 0.748655,-7.409999 0.141563,-0.07451 0.75277,-0.167271 1.833119,-0.279031 1.266615,-0.126661 2.08578,-0.268571 2.458314,-0.425035 0.379985,-0.163915 0.57038,-0.398589 0.57038,-0.704066 0,-0.305478 -0.175259,-0.450752 -0.525441,-0.435851 -0.342731,0.0149 -1.486544,0.02271 -3.431171,0.02271 -0.44704,0 -0.670629,-0.171529 -0.670629,-0.51426 0,-1.072898 0.287054,-2.462495 0.860756,-4.1686996 0.573702,-1.7136555 1.29621,-2.5707609 2.167939,-2.5707609 0.804673,0 1.207428,0.719101 1.207428,2.1570815 l -0.07852,1.084219 c 0,0.245872 0.123023,0.368796 0.368895,0.368796 0.32783,0 0.618297,-0.342517 0.87162,-1.0279797 0.260774,-0.6929129 0.391118,-1.3114394 0.391118,-1.8553388 0,-0.6705608 -0.23091,-1.2293075 -0.692852,-1.6763481 C 93.796492,5.7647602 93.234108,5.5373563 92.570997,5.5373563 Z M 75.505021,6.677273 c -0.432139,0 -0.82708,0.1564491 -1.184712,0.4693775 -0.350182,0.3054777 -0.524948,0.6072009 -0.524948,0.9052279 0,0.3576325 0.100566,0.7789155 0.301734,1.2632094 0.05215,0.1266615 0.09316,0.2417753 0.122965,0.3460848 0.08196,0.3352804 0.201073,0.5029044 0.357537,0.5029044 0.208619,0 0.510315,-0.100574 0.905201,-0.3017426 0.402337,-0.208619 0.692804,-0.6070113 0.87162,-1.1956148 0.186267,-0.5886034 0.279511,-1.0059811 0.279511,-1.2518534 0,-0.1564642 -0.134251,-0.3168185 -0.402476,-0.4807334 C 75.963229,6.7627672 75.72109,6.677273 75.505021,6.677273 Z m 47.341569,0 c -0.43214,0 -0.82659,0.1564491 -1.18422,0.4693775 -0.35018,0.3054777 -0.52544,0.6072009 -0.52544,0.9052279 0,0.3576325 0.10056,0.7789155 0.30173,1.2632094 0.0522,0.1266615 0.0932,0.2417753 0.12297,0.3460848 0.082,0.3352804 0.20107,0.5029044 0.35753,0.5029044 0.20862,0 0.51032,-0.100574 0.9052,-0.3017426 0.40234,-0.208619 0.69281,-0.6070113 0.87162,-1.1956148 0.18627,-0.5886034 0.27952,-1.0059811 0.27952,-1.2518534 0,-0.1564642 -0.13426,-0.3168185 -0.40248,-0.4807334 C 123.3048,6.7627672 123.06266,6.677273 122.84659,6.677273 Z M 61.82577,8.8457104 c -0.588604,0 -1.475142,0.048064 -2.6598,0.144923 -1.192108,0.096859 -2.15334,0.1454637 -2.883507,0.1454637 l -1.564965,-0.044883 c -0.275675,0 -0.536364,0.1340992 -0.782236,0.4023236 -0.238422,0.2607737 -0.357537,0.5289723 -0.357537,0.8046473 0,0.365083 0.305603,0.622106 0.916559,0.77112 0.33528,0.08941 0.502725,0.279382 0.502725,0.569958 0,0.268225 -0.06688,0.760463 -0.200991,1.475727 -0.149014,0.819575 -0.342823,2.212536 -0.581245,4.179515 -0.230971,1.959528 -0.365223,3.378744 -0.402476,4.257924 -0.0447,0.88663 -0.100355,1.501252 -0.167411,1.843983 -0.0596,0.342731 -0.167492,0.681884 -0.323956,1.017165 -0.149013,0.312928 -0.223707,0.506807 -0.223707,0.581314 0,0.178816 0.107886,0.417395 0.323956,0.715422 0.22352,0.305478 0.476887,0.458022 0.760013,0.458022 0.402337,0 0.909071,-0.208419 1.520027,-0.625657 0.461941,-0.320379 1.345066,-0.637182 2.648935,-0.950111 3.300649,-0.789771 5.841149,-2.037999 7.621861,-3.744204 1.788162,-1.713656 2.682022,-3.609489 2.682022,-5.688228 0,-1.892472 -0.62585,-3.416168 -1.877564,-4.571023 C 65.532211,9.4268069 63.882156,8.8457104 61.82577,8.8457104 Z m -0.402476,1.6763476 c 1.594444,0 2.875923,0.413473 3.844511,1.240498 0.976039,0.819574 1.464223,1.918623 1.464223,3.296998 0,1.661501 -0.629757,3.143862 -1.888922,4.44773 -1.259164,1.303869 -2.897989,2.268818 -4.917122,2.894675 -2.019134,0.625857 -3.26742,0.938755 -3.744263,0.938755 -0.171366,0 -0.286574,-0.02625 -0.346179,-0.07841 -0.09686,-0.245872 -0.145682,-0.61074 -0.145682,-1.095034 0,-2.190499 0.44327,-5.949181 1.3299,-11.276415 0.298027,-0.02235 0.600217,-0.05588 0.905695,-0.100581 1.363474,-0.178816 2.529251,-0.268216 3.497839,-0.268216 z m 53.019196,1.821272 c -0.93879,0 -2.15338,0.488332 -3.64352,1.464371 -1.48268,0.976038 -2.22374,2.205281 -2.22374,3.687966 0,0.573702 0.2641,1.095559 0.7931,1.564952 0.53645,0.461942 1.56114,1.079927 3.07363,1.854798 1.19211,0.618406 1.78818,1.169883 1.78818,1.654177 -0.22352,0.409787 -0.80836,0.752305 -1.7546,1.02798 -0.94623,0.275675 -1.83277,0.413679 -2.6598,0.413679 -0.0969,0 -0.29799,-0.03689 -0.60346,-0.111396 -0.31293,-0.07451 -0.52529,-0.111937 -0.63705,-0.111937 -0.27568,0 -0.5515,0.06705 -0.82718,0.201162 -0.26822,0.134112 -0.40247,0.342531 -0.40247,0.625656 0,0.819575 0.60339,1.229683 1.8104,1.229683 1.43053,0 2.93218,-0.320709 4.50427,-0.961467 1.5721,-0.648209 2.35807,-1.542203 2.35807,-2.682157 0,-0.618406 -0.25337,-1.154803 -0.76001,-1.609294 -0.4992,-0.461942 -1.16996,-0.893859 -2.01189,-1.296196 -1.04309,-0.491744 -1.7656,-0.905758 -2.16794,-1.241038 -0.40234,-0.342731 -0.60347,-0.722679 -0.60347,-1.139917 0,-0.685462 0.56971,-1.300083 1.70966,-1.843983 1.13996,-0.543899 1.89615,-0.815462 2.26868,-0.815462 0.0745,0 0.23122,0.05197 0.46964,0.156279 0.23842,0.11176 0.39855,0.167635 0.4805,0.167635 0.11176,0 0.26457,-0.08213 0.45828,-0.246045 0.20117,-0.163915 0.30174,-0.361158 0.30174,-0.592129 0,-0.514097 -0.13767,-0.8756 -0.41334,-1.084219 -0.26823,-0.208619 -0.70418,-0.313098 -1.30768,-0.313098 z m 16.82005,0.827358 c -1.80307,0 -3.35305,0.93479 -4.64947,2.804909 -1.28896,1.862669 -1.93336,3.755138 -1.93336,5.677413 0,1.139953 0.33147,2.097633 0.99458,2.872503 0.66311,0.774871 1.50523,1.162088 2.52597,1.162088 1.65405,0 3.24455,-0.826945 4.77194,-2.480995 1.53484,-1.65405 2.30226,-3.44985 2.30226,-5.387026 0,-1.266615 -0.37248,-2.357853 -1.11755,-3.274286 -0.73762,-0.916433 -1.70227,-1.374606 -2.89437,-1.374606 z m -34.388751,0.301743 c -0.461942,0 -0.801232,0.223499 -1.017302,0.670539 0,0.640758 -0.197223,1.754347 -0.592109,3.341341 -0.469393,1.899922 -0.70421,3.338124 -0.70421,4.314163 0,1.192108 0.253367,2.074927 0.760013,2.64863 0.514097,0.573702 1.016924,0.860885 1.508669,0.860885 0.856827,0 1.784374,-0.439727 2.782764,-1.318907 0.998386,-0.87918 1.974756,-2.119597 2.928446,-3.721493 -0.007,0.126662 -0.0114,0.249586 -0.0114,0.368797 v 0.368796 c 0,1.512488 0.16013,2.656236 0.4805,3.431106 0.32038,0.774871 0.74169,1.162088 1.26324,1.162088 0.24587,0 0.51779,-0.08549 0.81581,-0.25686 0.30548,-0.171365 0.45828,-0.361339 0.45828,-0.569958 0,-0.171366 -0.14939,-0.394864 -0.44741,-0.670539 -0.5737,-0.514097 -0.86026,-1.643306 -0.86026,-3.386764 0,-1.452882 0.22358,-2.995023 0.67062,-4.626721 0.14157,-0.461942 0.21235,-0.734045 0.21235,-0.816003 0,-0.670561 -0.25336,-1.005809 -0.76001,-1.005809 -0.33528,0 -0.60378,0.134099 -0.80495,0.402324 -0.19372,0.260773 -0.44709,0.830695 -0.76002,1.709875 -0.79722,2.197949 -1.75454,3.911619 -2.872144,5.140981 -1.117601,1.229362 -2.037826,1.843983 -2.760542,1.843983 -0.566251,0 -0.849397,-0.610716 -0.849397,-1.832627 0,-1.341122 0.346611,-2.946948 1.039524,-4.817067 0.365083,-0.961138 0.547664,-1.702048 0.547664,-2.223595 0,-0.238422 -0.09324,-0.465826 -0.279511,-0.681895 -0.186267,-0.223521 -0.435727,-0.33527 -0.748655,-0.33527 z M 73.281278,13.62871 c -0.312928,0 -0.555067,0.167624 -0.726432,0.502904 -0.171366,0.32783 -0.257289,0.726763 -0.257289,1.196156 0,0.238422 -0.09666,0.875393 -0.290375,1.911037 -0.566251,2.965369 -0.849398,5.133306 -0.849398,6.50423 0,1.326221 0.361254,1.989447 1.08397,1.989447 0.275675,0 0.536364,-0.107844 0.782236,-0.323914 0.245872,-0.208619 0.368895,-0.380148 0.368895,-0.51426 0,-0.08941 -0.01514,-0.201157 -0.04494,-0.33527 -0.156464,-0.707814 -0.234572,-1.344785 -0.234572,-1.911036 0,-1.169757 0.06737,-2.179406 0.201485,-3.028783 0.134112,-0.849377 0.48023,-2.257419 1.039031,-4.224397 0.104309,-0.365083 0.156546,-0.659537 0.156546,-0.883057 0,-0.22352 -0.111795,-0.424669 -0.335315,-0.603485 -0.21607,-0.186267 -0.513858,-0.279572 -0.893842,-0.279572 z m 47.341562,0 c -0.31292,0 -0.55506,0.167624 -0.72643,0.502904 -0.17136,0.32783 -0.25729,0.726763 -0.25729,1.196156 0,0.238422 -0.0967,0.875393 -0.29037,1.911037 -0.56625,2.965369 -0.8494,5.133306 -0.8494,6.50423 0,1.326221 0.36125,1.989447 1.08397,1.989447 0.27568,0 0.53636,-0.107844 0.78224,-0.323914 0.24587,-0.208619 0.36889,-0.380148 0.36889,-0.51426 0,-0.08941 -0.0146,-0.201157 -0.0444,-0.33527 -0.15647,-0.707814 -0.23507,-1.344785 -0.23507,-1.911036 0,-1.169757 0.0674,-2.179406 0.20149,-3.028783 0.13411,-0.849377 0.48023,-2.257419 1.03903,-4.224397 0.10431,-0.365083 0.15654,-0.659537 0.15654,-0.883057 0,-0.22352 -0.11179,-0.424669 -0.33531,-0.603485 -0.21607,-0.186267 -0.51386,-0.279572 -0.89385,-0.279572 z m 18.7307,0.234689 c -0.21607,0 -0.44698,0.175434 -0.69285,0.525616 -0.23842,0.342731 -0.35754,0.655629 -0.35754,0.938755 0,2.495976 -0.20504,4.868968 -0.61482,7.119072 -0.11921,0.655659 -0.17877,1.162436 -0.17877,1.520069 0,0.849377 0.43985,1.274024 1.31903,1.274024 0.23843,0 0.53621,-0.164259 0.89385,-0.492089 0.36508,-0.32783 1.16619,-1.676091 2.403,-4.045406 0.93879,-1.765811 1.63542,-2.902289 2.08992,-3.408935 0.46194,-0.506646 0.88666,-0.759764 1.27409,-0.759764 0.67056,0 1.10992,1.095143 1.31854,3.285642 0.20117,2.183048 0.47309,3.527945 0.81582,4.034591 0.35018,0.499195 0.84227,0.748949 1.47558,0.748949 0.61841,0 1.14711,-0.182704 1.5867,-0.547787 0.43959,-0.372534 0.65976,-0.722862 0.65976,-1.050692 0,-0.372534 -0.16062,-0.558602 -0.481,-0.558602 -0.0298,0 -0.0742,0.01454 -0.13383,0.04434 -0.35018,0.163915 -0.64064,0.246044 -0.87162,0.246044 -0.36508,0 -0.63358,-0.223498 -0.80495,-0.670539 -0.16391,-0.454491 -0.34991,-1.601604 -0.55853,-3.441921 -0.19371,-1.616797 -0.50323,-2.730926 -0.92791,-3.341881 -0.41724,-0.610955 -0.96108,-0.916584 -1.63164,-0.916584 -0.84192,0 -1.61276,0.368773 -2.31312,1.10639 -0.70037,0.737617 -1.51661,2.0121 -2.44795,3.822614 -0.92388,1.780712 -1.44135,2.670801 -1.55311,2.670801 -0.0596,0 -0.0894,-0.05978 -0.0894,-0.17899 0,-0.208619 0.0742,-0.700316 0.22322,-1.475187 0.44704,-2.346963 0.67063,-3.896373 0.67063,-4.648891 0,-0.722716 -0.082,-1.203238 -0.24593,-1.44166 -0.16392,-0.238421 -0.43974,-0.357981 -0.82718,-0.357981 z m -8.32607,1.084218 c 0.72272,0 1.29682,0.286643 1.72151,0.860346 0.43214,0.566251 0.64791,1.307702 0.64791,2.224135 0,1.490135 -0.55897,2.846207 -1.67657,4.068118 -1.1176,1.21446 -2.23114,1.821812 -3.34129,1.821812 -0.52155,0 -0.94285,-0.238579 -1.26323,-0.715422 -0.31293,-0.476843 -0.46915,-1.091465 -0.46915,-1.843983 0,-1.333671 0.42863,-2.734443 1.28546,-4.202226 0.86428,-1.475234 1.8958,-2.21278 3.09536,-2.21278 z M 53.097223,29.07112 v 3.115845 17.649242 h 11.348839 v -9.062555 l -0.02617,0.02379 -1.49731,-1.355679 1.49731,-1.379472 0.02617,0.02379 V 29.07112 Z m 3.441541,3.115845 h 4.465757 v 5.684983 h -4.465757 z m 9.483622,1.450852 v 16.19839 h 3.441542 v -6.541003 h 4.465757 v 6.541003 h 3.441541 v -16.19839 z m 12.925164,0 v 9.657387 h 7.907298 v 3.425158 H 78.94755 v 3.115845 H 90.29639 V 40.17936 h -7.907299 v -3.425158 h 7.907299 v -3.116385 z m 13.713326,0 v 16.19839 h 3.441541 v -16.19839 z m 5.805533,0 v 16.19839 H 109.81525 V 44.62709 h -3.44105 v 2.093272 h -4.46625 v -9.96616 h 4.64996 v 2.116525 h 3.44154 v -5.23291 z m 13.109361,0 v 9.657387 h 7.9073 v 3.425158 h -7.9073 v 3.115845 h 11.34884 V 40.17936 h -7.90779 v -3.425158 h 7.90779 v -3.116385 z m -42.111842,3.116385 h 4.465757 v 3.425158 h -4.465757 z m -12.925164,4.23359 h 4.465757 v 5.73257 h -4.465757 z"
       transform="scale(1.0464295,0.95563052)" />
    <path
       style="fill:url(#linearGradient2-3);stroke:none;stroke-width:0.421;stroke-dasharray:none;filter:url(#filter58-3)"
       id="rect1-1"
       width="52.916668"
       height="52.916668"
       x="-52.916668"
       y="-52.916668"
       transform="scale(-1)"
       sodipodi:type="rect"
       d="M -46.836284,-52.916668 H -6.0803843 C -2.7118514,-52.916668 0,-50.204817 0,-46.836284 V -6.0803843 C 0,-2.7118514 -2.7118514,0 -6.0803843,0 H -46.836284 c -3.368533,0 -6.080384,-2.7118514 -6.080384,-6.0803843 V -46.836284 c 0,-3.368533 2.711851,-6.080384 6.080384,-6.080384 z"
       inkscape:path-effect="#path-effect18-0"
       ry="6.0803843" />
  </g>
  <g
     inkscape:groupmode="layer"
     id="layer2"
     inkscape:label="Layer 2">
    <path
       style="opacity:1;fill:#000000;stroke:none;stroke-width:0.235185;stroke-dasharray:none;stroke-opacity:1"
       id="rect2"
       width="42.333332"
       height="42.333332"
       x="5.2916665"
       y="5.2916665"
       sodipodi:type="rect"
       d="M 5.2916665,5.2916665 H 47.624999 V 47.624999 H 5.2916665 Z"
       inkscape:path-effect="#path-effect19" />
    <rect
       style="fill:#ffffff;fill-opacity:1;stroke-width:0.126745"
       id="rect3"
       width="15.875"
       height="5.2916665"
       x="26.458334"
       y="37.041668" />
    <path
       style="fill:#ffffff;fill-opacity:1;stroke-width:0.264999"
       d="M 13.229167,13.229167 26.458333,26.458333 13.229167,39.6875 10.583333,37.041667 21.166667,26.458333 10.583333,15.875"
       id="path6"
       sodipodi:nodetypes="cccccc" />
  </g>
</svg>
