<?xml version="1.0" encoding="UTF-8" standalone="no"?>
<!-- Uploaded to: SVG Repo, www.svgrepo.com, Generator: SVG Repo Mixer Tools -->

<svg
   version="1.1"
   id="Icons"
   viewBox="0 0 32 29.050003"
   xml:space="preserve"
   sodipodi:docname="Page4_Modellen.svg"
   width="32"
   height="29.050003"
   xmlns:inkscape="http://www.inkscape.org/namespaces/inkscape"
   xmlns:sodipodi="http://sodipodi.sourceforge.net/DTD/sodipodi-0.dtd"
   xmlns="http://www.w3.org/2000/svg"
   xmlns:svg="http://www.w3.org/2000/svg"><defs
   id="defs3" /><sodipodi:namedview
   id="namedview3"
   pagecolor="#ffffff"
   bordercolor="#000000"
   borderopacity="0.25"
   inkscape:showpageshadow="2"
   inkscape:pageopacity="0.0"
   inkscape:pagecheckerboard="0"
   inkscape:deskcolor="#d1d1d1"
   inkscape:export-bgcolor="#00000000" />&#10;<style
   type="text/css"
   id="style1">&#10;	.st0{fill:none;stroke:#000000;stroke-width:2;stroke-linecap:round;stroke-linejoin:round;stroke-miterlimit:10;}&#10;</style>&#10;<path
   d="m 24,13.050002 c -4.4,0 -8,3.6 -8,8 0,4.4 3.6,8 8,8 4.4,0 8,-3.6 8,-8 0,-4.4 -3.6,-8 -8,-8 z m 3,9 h -2 v 2 c 0,0.6 -0.4,1 -1,1 -0.6,0 -1,-0.4 -1,-1 v -2 h -2 c -0.6,0 -1,-0.4 -1,-1 0,-0.6 0.4,-1 1,-1 h 2 v -2 c 0,-0.6 0.4,-1 1,-1 0.6,0 1,0.4 1,1 v 2 h 2 c 0.6,0 1,0.4 1,1 0,0.6 -0.4,1 -1,1 z"
   id="path1"
   style="fill:#ffffff;fill-opacity:1" />&#10;<g
   id="g3"
   style="fill:#ffffff;fill-opacity:1"
   transform="translate(0,-2.9499979)">&#10;	<path
   d="M 14,26.8 2.9,20 4.8,18.9 C 5.3,18.6 5.4,18 5.1,17.5 4.8,17 4.2,16.9 3.7,17.2 l -3.3,2 C 0.2,19.3 0,19.7 0,20 c 0,0.3 0.2,0.7 0.5,0.9 l 13,8 c 0.1,0.1 0.3,0.1 0.5,0.1 0.2,0 0.4,0 0.5,-0.1 l 0.6,-0.3 C 14.8,28 14.6,27.4 14.4,26.7 Z"
   id="path2"
   style="fill:#ffffff;fill-opacity:1" />&#10;	<path
   d="m 27.5,11.1 -13,-8 c -0.3,-0.2 -0.7,-0.2 -1,0 l -13,8 C 0.2,11.3 0,11.7 0,12 c 0,0.3 0.2,0.7 0.5,0.9 l 13,8 c 0.1,0.1 0.3,0.1 0.5,0.1 0.2,0 0.4,0 0.5,-0.1 1.3,-4 5.1,-6.9 9.5,-6.9 0.5,0 1,0 1.5,0.1 l 2.1,-1.3 c 0.3,-0.2 0.5,-0.5 0.5,-0.9 0,-0.4 -0.3,-0.6 -0.6,-0.8 z"
   id="path3"
   style="fill:#ffffff;fill-opacity:1" />&#10;</g>&#10;</svg>
