<?xml version="1.0" encoding="UTF-8" standalone="no"?>
<!-- Uploaded to: SVG Repo, www.svgrepo.com, Generator: SVG Repo Mixer Tools -->

<svg
   version="1.1"
   id="Icons"
   viewBox="0 0 30 27"
   xml:space="preserve"
   sodipodi:docname="Page5_Extensies.svg"
   width="30"
   height="27"
   xmlns:inkscape="http://www.inkscape.org/namespaces/inkscape"
   xmlns:sodipodi="http://sodipodi.sourceforge.net/DTD/sodipodi-0.dtd"
   xmlns="http://www.w3.org/2000/svg"
   xmlns:svg="http://www.w3.org/2000/svg"><defs
   id="defs2" /><sodipodi:namedview
   id="namedview2"
   pagecolor="#ffffff"
   bordercolor="#000000"
   borderopacity="0.25"
   inkscape:showpageshadow="2"
   inkscape:pageopacity="0.0"
   inkscape:pagecheckerboard="0"
   inkscape:deskcolor="#d1d1d1"
   inkscape:export-bgcolor="#00000000" />&#10;<style
   type="text/css"
   id="style1">&#10;	.st0{fill:none;stroke:#000000;stroke-width:2;stroke-linecap:round;stroke-linejoin:round;stroke-miterlimit:10;}&#10;</style>&#10;<path
   d="M 25,0 H 3 C 1.3,0 0,1.3 0,3 v 18 c 0,1.7 1.3,3 3,3 H 13.4 C 12.5,22.5 12,20.8 12,19 12,13.5 16.5,9 22,9 c 2.3,0 4.3,0.8 6,2 V 3 C 28,1.3 26.7,0 25,0 Z M 5.9,4.4 C 5.9,4.5 5.8,4.6 5.7,4.7 5.5,4.9 5.3,5 5,5 4.7,5 4.5,4.9 4.3,4.7 4.1,4.5 4,4.3 4,4 4,3.7 4.1,3.5 4.3,3.3 4.3,3.3 4.4,3.2 4.4,3.2 4.5,3.2 4.5,3.1 4.6,3.1 4.7,3 4.7,3 4.8,3 c 0.1,0 0.3,0 0.4,0 0.1,0 0.1,0 0.2,0.1 0.1,0 0.1,0.1 0.2,0.1 0,0 0.1,0.1 0.1,0.1 C 5.8,3.4 5.9,3.5 5.9,3.6 6,3.7 6,3.9 6,4 6,4.1 6,4.3 5.9,4.4 Z M 8.7,4.7 C 8.5,4.9 8.3,5 8,5 7.7,5 7.5,4.9 7.3,4.7 7.1,4.5 7,4.3 7,4 7,3.9 7,3.7 7.1,3.6 7.2,3.5 7.2,3.4 7.3,3.3 7.4,3.2 7.5,3.1 7.6,3.1 8,2.9 8.4,3 8.7,3.3 8.8,3.4 8.9,3.5 8.9,3.6 9,3.7 9,3.9 9,4 9,4.3 8.9,4.5 8.7,4.7 Z M 11.9,4.4 C 11.8,4.5 11.8,4.6 11.7,4.7 11.5,4.9 11.3,5 11,5 10.9,5 10.7,5 10.6,4.9 10.5,4.8 10.4,4.8 10.3,4.7 10.2,4.6 10.1,4.5 10.1,4.4 10,4.3 10,4.1 10,4 c 0,-0.1 0,-0.3 0.1,-0.4 0.1,-0.1 0.1,-0.2 0.2,-0.3 0.4,-0.4 1,-0.4 1.4,0 0.1,0.1 0.2,0.2 0.2,0.3 C 12,3.7 12,3.9 12,4 c 0,0.1 0,0.3 -0.1,0.4 z"
   id="path1"
   style="fill:#ffffff;fill-opacity:1" />&#10;<path
   d="m 22,11 c -4.4,0 -8,3.6 -8,8 0,4.4 3.6,8 8,8 4.4,0 8,-3.6 8,-8 0,-4.4 -3.6,-8 -8,-8 z m 3,9 h -2 v 2 c 0,0.6 -0.4,1 -1,1 -0.6,0 -1,-0.4 -1,-1 v -2 h -2 c -0.6,0 -1,-0.4 -1,-1 0,-0.6 0.4,-1 1,-1 h 2 v -2 c 0,-0.6 0.4,-1 1,-1 0.6,0 1,0.4 1,1 v 2 h 2 c 0.6,0 1,0.4 1,1 0,0.6 -0.4,1 -1,1 z"
   id="path2"
   style="fill:#ffffff;fill-opacity:1" />&#10;</svg>
