<?xml version="1.0" encoding="UTF-8" standalone="no"?>
<!-- Uploaded to: SVG Repo, www.svgrepo.com, Generator: SVG Repo Mixer Tools -->

<svg
   version="1.1"
   id="_x32_"
   viewBox="0 0 511.99898 512"
   xml:space="preserve"
   sodipodi:docname="Page3_Generatie.svg"
   width="511.99899"
   height="512"
   xmlns:inkscape="http://www.inkscape.org/namespaces/inkscape"
   xmlns:sodipodi="http://sodipodi.sourceforge.net/DTD/sodipodi-0.dtd"
   xmlns="http://www.w3.org/2000/svg"
   xmlns:svg="http://www.w3.org/2000/svg"><defs
   id="defs16" /><sodipodi:namedview
   id="namedview16"
   pagecolor="#ffffff"
   bordercolor="#000000"
   borderopacity="0.25"
   inkscape:showpageshadow="2"
   inkscape:pageopacity="0.0"
   inkscape:pagecheckerboard="0"
   inkscape:deskcolor="#d1d1d1"
   inkscape:export-bgcolor="#00000000" />&#10;<style
   type="text/css"
   id="style1">&#10;	.st0{fill:#000000;}&#10;</style>&#10;<g
   id="g16"
   style="fill:#ffffff;fill-opacity:1">&#10;	<path
   class="st0"
   d="M 167.315,14.993 C 167.315,6.712 160.603,0 152.333,0 h -5.514 c -8.27,0 -14.982,6.712 -14.982,14.993 V 56.46 h 35.479 V 14.993 Z"
   id="path1"
   style="fill:#ffffff;fill-opacity:1" />&#10;	<path
   class="st0"
   d="M 238.261,14.993 C 238.261,6.712 231.55,0 223.279,0 h -5.504 c -8.27,0 -14.982,6.712 -14.982,14.993 V 56.46 h 35.468 V 14.993 Z"
   id="path2"
   style="fill:#ffffff;fill-opacity:1" />&#10;	<path
   class="st0"
   d="M 309.208,14.993 C 309.208,6.712 302.496,0 294.226,0 h -5.504 C 280.452,0 273.74,6.712 273.74,14.993 V 56.46 h 35.468 z"
   id="path3"
   style="fill:#ffffff;fill-opacity:1" />&#10;	<path
   class="st0"
   d="M 380.164,14.993 C 380.164,6.712 373.453,0 365.182,0 h -5.514 c -8.27,0 -14.982,6.712 -14.982,14.993 V 56.46 h 35.478 V 14.993 Z"
   id="path4"
   style="fill:#ffffff;fill-opacity:1" />&#10;	<path
   class="st0"
   d="m 131.836,497.007 c 0,8.282 6.712,14.993 14.982,14.993 h 5.514 c 8.27,0 14.982,-6.711 14.982,-14.993 V 455.55 h -35.479 v 41.457 z"
   id="path5"
   style="fill:#ffffff;fill-opacity:1" />&#10;	<path
   class="st0"
   d="m 202.793,497.007 c 0,8.282 6.712,14.993 14.982,14.993 h 5.504 c 8.272,0 14.982,-6.711 14.982,-14.993 V 455.55 h -35.468 z"
   id="path6"
   style="fill:#ffffff;fill-opacity:1" />&#10;	<path
   class="st0"
   d="m 273.739,497.007 c 0,8.282 6.712,14.993 14.982,14.993 h 5.504 c 8.27,0 14.982,-6.711 14.982,-14.993 V 455.55 h -35.468 z"
   id="path7"
   style="fill:#ffffff;fill-opacity:1" />&#10;	<path
   class="st0"
   d="m 344.686,497.007 c 0,8.282 6.711,14.993 14.982,14.993 h 5.514 c 8.271,0 14.982,-6.711 14.982,-14.993 V 455.55 h -35.478 z"
   id="path8"
   style="fill:#ffffff;fill-opacity:1" />&#10;	<path
   class="st0"
   d="M 497.018,131.836 H 455.55 v 35.478 h 41.467 c 8.27,0 14.982,-6.712 14.982,-14.993 v -5.493 c 10e-4,-8.28 -6.711,-14.992 -14.981,-14.992 z"
   id="path9"
   style="fill:#ffffff;fill-opacity:1" />&#10;	<path
   class="st0"
   d="M 497.018,202.793 H 455.55 v 35.468 h 41.467 c 8.27,0 14.982,-6.712 14.982,-14.982 v -5.494 c 10e-4,-8.281 -6.711,-14.992 -14.981,-14.992 z"
   id="path10"
   style="fill:#ffffff;fill-opacity:1" />&#10;	<path
   class="st0"
   d="M 497.018,273.739 H 455.55 v 35.468 h 41.467 c 8.27,0 14.982,-6.711 14.982,-14.992 v -5.494 c 10e-4,-8.27 -6.711,-14.982 -14.981,-14.982 z"
   id="path11"
   style="fill:#ffffff;fill-opacity:1" />&#10;	<path
   class="st0"
   d="M 497.018,344.685 H 455.55 v 35.479 h 41.467 c 8.27,0 14.982,-6.712 14.982,-14.993 v -5.493 c 10e-4,-8.281 -6.711,-14.993 -14.981,-14.993 z"
   id="path12"
   style="fill:#ffffff;fill-opacity:1" />&#10;	<path
   class="st0"
   d="m 0,146.829 v 5.493 c 0,8.281 6.712,14.993 14.982,14.993 H 56.46 V 131.837 H 14.982 C 6.712,131.836 0,138.548 0,146.829 Z"
   id="path13"
   style="fill:#ffffff;fill-opacity:1" />&#10;	<path
   class="st0"
   d="m 0,217.785 v 5.494 c 0,8.27 6.712,14.982 14.982,14.982 H 56.46 V 202.793 H 14.982 C 6.712,202.793 0,209.504 0,217.785 Z"
   id="path14"
   style="fill:#ffffff;fill-opacity:1" />&#10;	<path
   class="st0"
   d="m 0,288.721 v 5.494 c 0,8.281 6.712,14.992 14.982,14.992 H 56.46 V 273.739 H 14.982 C 6.712,273.739 0,280.451 0,288.721 Z"
   id="path15"
   style="fill:#ffffff;fill-opacity:1" />&#10;	<path
   class="st0"
   d="m 0,359.679 v 5.493 c 0,8.281 6.712,14.993 14.982,14.993 H 56.46 V 344.686 H 14.982 C 6.712,344.685 0,351.397 0,359.679 Z"
   id="path16"
   style="fill:#ffffff;fill-opacity:1" />&#10;	<rect
   x="78.628998"
   y="78.628998"
   class="st0"
   width="354.75201"
   height="354.75299"
   id="rect16"
   style="fill:#ffffff;fill-opacity:1" />&#10;</g>&#10;</svg>
